<?xml version="1.0" encoding="UTF-8"?>
<svg id="Layer_1" xmlns="http://www.w3.org/2000/svg" version="1.1" viewBox="0 0 48 46">
  <!-- Generator: Adobe Illustrator 30.2.1, SVG Export Plug-In . SVG Version: 2.1.1 Build 1)  -->
  <defs>
    <style>
      .st0 {
        fill: #fff;
      }

      .st0, .st1 {
        stroke: #fff;
        stroke-miterlimit: 10;
        stroke-width: .8px;
      }

      .st2, .st1 {
        fill: #9d8bc2;
      }
    </style>
  </defs>
  <g>
    <path class="st1" d="M8,1.1c.3,0,1,.2,1.6.5,10.6,4.4,21.1,8.8,31.7,13.2,2.1.9,3.6,2.1,3.6,4.5,0,2.4-1.6,3.6-3.7,4.4-3.1,1.1-6.1,2.5-9.2,3.6-2.1.8-3.4,2.1-4.2,4.2-1.3,3.3-2.6,6.5-3.9,9.8-.8,1.9-1.9,3.4-4.1,3.4-2.3,0-3.6-1.4-4.3-3.5C11.5,29.9,7.6,18.7,3.8,7.4c-1.2-3.4.6-6.4,4.2-6.3Z"/>
    <path class="st0" d="M19.7,45.5s0,0,0,0c-2.4,0-4.1-1.4-5-4.1-1.4-4.1-2.8-8.1-4.2-12.2-2.4-7.1-4.9-14.4-7.4-21.6-.7-2-.5-4,.6-5.4C4.6,1,6.1.3,8,.3h.1s.1,0,.1,0c0,0,.2,0,.3,0,.4,0,.9.2,1.4.5,3.6,1.5,7.3,3,10.9,4.6,6.8,2.8,13.8,5.8,20.8,8.7,1.8.7,4.1,2.1,4.1,5.2,0,3.2-2.4,4.5-4.2,5.1-1.5.5-3,1.1-4.4,1.7-1.6.6-3.2,1.3-4.8,1.9-1.9.7-3,1.8-3.7,3.7-.7,1.8-1.4,3.6-2.1,5.3-.6,1.5-1.2,3-1.8,4.5-.4,1-1.5,3.9-4.8,3.9ZM7.8,1.9c-1.3,0-2.3.5-2.9,1.3-.7,1-.8,2.4-.3,3.9,2.4,7.2,4.9,14.5,7.4,21.6,1.4,4.1,2.8,8.1,4.2,12.2.7,2,1.8,3,3.6,3,0,0,0,0,0,0,1.6,0,2.6-.9,3.3-2.9.6-1.5,1.2-3.1,1.8-4.5.7-1.7,1.4-3.5,2.1-5.3.9-2.4,2.4-3.9,4.7-4.7,1.6-.6,3.2-1.2,4.8-1.8,1.5-.6,3-1.2,4.5-1.7,2.3-.8,3.2-1.9,3.2-3.6,0-1.7-1-2.9-3.2-3.8-6.9-2.9-14-5.8-20.8-8.7-3.6-1.5-7.3-3-10.9-4.6-.4-.2-.9-.3-1.2-.4,0,0-.1,0-.2,0Z"/>
  </g>
  <g>
    <path class="st2" d="M-4.4,80.5v-21.3H2.3v3.1H-.2v15h2.5v3.1h-6.8Z"/>
    <path class="st2" d="M10,76.4c-1.3,0-2.5-.3-3.5-.8-1-.5-1.8-1.2-2.3-2.2s-.8-2-.8-3.3.3-2.4.8-3.3c.5-.9,1.3-1.6,2.3-2.1,1-.5,2.1-.7,3.5-.7s1.6.1,2.4.3c.8.2,1.4.5,1.9.9l-1.2,2.9c-.4-.3-.8-.5-1.3-.7-.5-.2-1-.3-1.4-.3-.8,0-1.5.3-1.9.8-.5.5-.7,1.3-.7,2.2s.2,1.6.7,2.2c.5.5,1.1.8,1.9.8s.9,0,1.4-.3c.5-.2.9-.4,1.3-.7l1.2,3c-.5.4-1.1.7-1.9.9-.8.2-1.6.3-2.4.3Z"/>
    <path class="st2" d="M15.7,76.1v-11.8h4.2v2.1h-.3c.2-.5.5-.9.9-1.2.4-.4.8-.6,1.3-.8.5-.2,1.1-.3,1.7-.3.9,0,1.6.2,2.2.6s1.1,1.1,1.3,1.9h-.3c.4-.8.9-1.4,1.7-1.9.7-.5,1.5-.7,2.5-.7s1.7.2,2.3.6c.6.4,1,.9,1.3,1.7s.4,1.7.4,2.9v7h-4.3v-6.9c0-.7-.1-1.2-.3-1.5-.2-.3-.6-.5-1.1-.5s-.7,0-1,.3-.5.5-.6.8-.2.8-.2,1.3v6.4h-4.3v-6.9c0-.7-.1-1.2-.3-1.5-.2-.3-.5-.5-1-.5s-.7,0-1,.3c-.3.2-.5.5-.6.8-.1.4-.2.8-.2,1.3v6.4h-4.3Z"/>
    <path class="st2" d="M36.5,80.5v-3.1h2.5v-15h-2.5v-3.1h6.8v21.3h-6.8Z"/>
  </g>
</svg>