<svg width="28" height="30" viewBox="0 0 28 30" fill="none" xmlns="http://www.w3.org/2000/svg">
<mask id="mask0_521_990" style="mask-type:alpha" maskUnits="userSpaceOnUse" x="0" y="0" width="28" height="30">
<rect x="27.9286" y="29.5" width="27.9286" height="29.5" transform="rotate(180 27.9286 29.5)" fill="#D9D9D9"/>
</mask>
<g mask="url(#mask0_521_990)">
<path d="M15.7635 14.7505L11.0237 9.74394C10.8626 9.57376 10.7801 9.35984 10.7764 9.10219C10.7727 8.84456 10.8551 8.62671 11.0237 8.44864C11.1923 8.27056 11.3967 8.18151 11.6368 8.18151C11.877 8.18151 12.0814 8.27056 12.25 8.44864L17.4799 13.9728C17.5888 14.0878 17.6656 14.2092 17.7104 14.3368C17.7551 14.4644 17.7775 14.6023 17.7775 14.7505C17.7775 14.8986 17.7551 15.0365 17.7104 15.1641C17.6656 15.2918 17.5888 15.4131 17.4799 15.5281L12.25 21.0523C12.0889 21.2225 11.8864 21.3095 11.6424 21.3135C11.3985 21.3174 11.1923 21.2304 11.0237 21.0523C10.8551 20.8742 10.7708 20.6583 10.7708 20.4046C10.7708 20.1509 10.8551 19.935 11.0237 19.757L15.7635 14.7505Z" fill="#434343"/>
</g>
</svg>
