<svg width="28" height="30" viewBox="0 0 28 30" fill="none" xmlns="http://www.w3.org/2000/svg">
<mask id="mask0_521_1233" style="mask-type:alpha" maskUnits="userSpaceOnUse" x="0" y="0" width="28" height="30">
<rect width="27.9286" height="29.5" fill="#D9D9D9"/>
</mask>
<g mask="url(#mask0_521_1233)">
<path d="M9.53323 8.95884C9.28595 8.95884 9.07871 8.87044 8.91153 8.69365C8.74415 8.51685 8.66046 8.29786 8.66046 8.03666C8.66046 7.77526 8.74415 7.55636 8.91153 7.37998C9.07871 7.20339 9.28595 7.11509 9.53323 7.11509H13.0915V4.46777C13.0915 4.20658 13.1752 3.98758 13.3426 3.81078C13.5099 3.63419 13.7173 3.5459 13.9646 3.5459C14.212 3.5459 14.4193 3.63419 14.5863 3.81078C14.7534 3.98758 14.837 4.20658 14.837 4.46777V7.11509H18.3953C18.6426 7.11509 18.8498 7.20349 19.017 7.38028C19.1844 7.55708 19.2681 7.77607 19.2681 8.03727C19.2681 8.29868 19.1844 8.51757 19.017 8.69395C18.8498 8.87054 18.6426 8.95884 18.3953 8.95884H9.53323ZM10.8313 26.1672C10.2528 26.1672 9.75753 25.9496 9.34558 25.5145C8.93364 25.0794 8.72766 24.5562 8.72766 23.9451V13.5209C8.72766 12.5951 9.03449 11.8082 9.64814 11.16C10.2616 10.512 11.0066 10.188 11.883 10.188H16.0455C16.922 10.188 17.6669 10.512 18.2804 11.16C18.8941 11.8082 19.2009 12.5951 19.2009 13.5209V23.9451C19.2009 24.5562 18.9949 25.0794 18.583 25.5145C18.171 25.9496 17.6758 26.1672 17.0972 26.1672H10.8313ZM10.4732 24.3234H17.0972C17.2018 24.3234 17.2876 24.288 17.3547 24.2171C17.4218 24.146 17.4553 24.0554 17.4553 23.9451V13.5209C17.4553 13.0989 17.3203 12.7452 17.0501 12.4598C16.7797 12.1744 16.4449 12.0318 16.0455 12.0318H11.883C11.4837 12.0318 11.1488 12.1744 10.8785 12.4598C10.6083 12.7452 10.4732 13.0989 10.4732 13.5209V14.9037H12.8006C13.0479 14.9037 13.2551 14.9921 13.4223 15.1689C13.5897 15.3457 13.6733 15.5647 13.6733 15.8259C13.6733 16.0873 13.5897 16.3062 13.4223 16.4826C13.2551 16.6592 13.0479 16.7475 12.8006 16.7475H10.4732V19.6077H12.8006C13.0483 19.6077 13.2556 19.6961 13.4226 19.8729C13.5898 20.0495 13.6733 20.2685 13.6733 20.5299C13.6733 20.7911 13.5897 21.01 13.4223 21.1866C13.2551 21.3632 13.0479 21.4515 12.8006 21.4515H10.4732V24.3234Z" fill="#434343"/>
</g>
</svg>
